<svg width="56" height="18" viewBox="0 0 56 18" fill="none" xmlns="http://www.w3.org/2000/svg">
<path d="M7.18528 0.199999C9.36128 0.199999 11.0733 0.719999 12.3213 1.76C13.5693 2.8 14.1933 4.232 14.1933 6.056C14.1933 7.88 13.5693 9.312 12.3213 10.352C11.0733 11.392 9.36128 11.912 7.18528 11.912H3.03328V17H0.633281V0.199999H7.18528ZM7.11328 9.824C8.63328 9.824 9.79328 9.504 10.5933 8.864C11.3933 8.208 11.7933 7.272 11.7933 6.056C11.7933 4.84 11.3933 3.912 10.5933 3.272C9.79328 2.616 8.63328 2.288 7.11328 2.288H3.03328V9.824H7.11328ZM28.8323 10.712C28.8323 10.888 28.8163 11.12 28.7843 11.408H18.4643C18.6083 12.528 19.0963 13.432 19.9283 14.12C20.7763 14.792 21.8243 15.128 23.0723 15.128C24.5923 15.128 25.8163 14.616 26.7443 13.592L28.0163 15.08C27.4403 15.752 26.7203 16.264 25.8563 16.616C25.0083 16.968 24.0563 17.144 23.0003 17.144C21.6563 17.144 20.4643 16.872 19.4243 16.328C18.3843 15.768 17.5763 14.992 17.0003 14C16.4403 13.008 16.1603 11.888 16.1603 10.64C16.1603 9.408 16.4323 8.296 16.9763 7.304C17.5363 6.312 18.2963 5.544 19.2563 5C20.2323 4.44 21.3283 4.16 22.5443 4.16C23.7603 4.16 24.8403 4.44 25.7843 5C26.7443 5.544 27.4883 6.312 28.0163 7.304C28.5603 8.296 28.8323 9.432 28.8323 10.712ZM22.5443 6.104C21.4403 6.104 20.5123 6.44 19.7603 7.112C19.0243 7.784 18.5923 8.664 18.4643 9.752H26.6243C26.4963 8.68 26.0563 7.808 25.3043 7.136C24.5683 6.448 23.6483 6.104 22.5443 6.104ZM39.1837 16.256C38.8477 16.544 38.4317 16.768 37.9357 16.928C37.4397 17.072 36.9277 17.144 36.3997 17.144C35.1197 17.144 34.1277 16.8 33.4237 16.112C32.7197 15.424 32.3677 14.44 32.3677 13.16V6.176H30.2077V4.28H32.3677V1.496H34.6717V4.28H38.3197V6.176H34.6717V13.064C34.6717 13.752 34.8397 14.28 35.1757 14.648C35.5277 15.016 36.0237 15.2 36.6637 15.2C37.3677 15.2 37.9677 15 38.4637 14.6L39.1837 16.256Z" fill="black"/>
<path d="M55.3852 13.832V17H40.6972V14.48L49.9132 3.368H40.8892V0.199999H55.0252V2.72L45.8332 13.832H55.3852Z" fill="#F05A28"/>
</svg>
